<svg width="100" height="100" viewBox="0 0 100 100" fill="none" xmlns="http://www.w3.org/2000/svg">
<path d="M2.57171 55C2.09122 55 1.71447 54.869 1.44147 54.6069C1.17938 54.3339 1.04834 53.9571 1.04834 53.4766V44.9589C1.04834 44.4675 1.17938 44.0907 1.44147 43.8286C1.70355 43.5666 2.07484 43.4355 2.55533 43.4355C3.04674 43.4355 3.41802 43.5666 3.66919 43.8286C3.93127 44.0907 4.06231 44.4675 4.06231 44.9589V52.4938H8.05911C8.47407 52.4938 8.79076 52.603 9.00916 52.8214C9.23849 53.0289 9.35315 53.3347 9.35315 53.7387C9.35315 54.1428 9.23849 54.454 9.00916 54.6724C8.79076 54.8908 8.47407 55 8.05911 55H2.57171ZM13.2876 55.1802C12.5887 55.1802 12.0154 55.0546 11.5677 54.8034C11.12 54.5414 10.7814 54.1537 10.5521 53.6404C10.3337 53.1272 10.2245 52.4774 10.2245 51.6912V48.2513C10.2245 47.7708 10.3501 47.4105 10.6013 47.1702C10.8524 46.9191 11.2128 46.7935 11.6824 46.7935C12.1519 46.7935 12.5123 46.9191 12.7635 47.1702C13.0146 47.4105 13.1402 47.7708 13.1402 48.2513V51.7731C13.1402 52.1662 13.2221 52.4611 13.3859 52.6576C13.5497 52.8542 13.8063 52.9525 14.1558 52.9525C14.5489 52.9525 14.8711 52.8105 15.1222 52.5266C15.3734 52.2426 15.499 51.8659 15.499 51.3963V48.2513C15.499 47.7708 15.6245 47.4105 15.8757 47.1702C16.1269 46.9191 16.4872 46.7935 16.9568 46.7935C17.4264 46.7935 17.7867 46.9191 18.0379 47.1702C18.2891 47.4105 18.4147 47.7708 18.4147 48.2513V53.6732C18.4147 54.656 17.9451 55.1474 17.0059 55.1474C16.5473 55.1474 16.1924 55.0218 15.9412 54.7707C15.6901 54.5195 15.5645 54.1537 15.5645 53.6732V52.7231L15.8266 53.5258C15.5863 54.0609 15.2478 54.4704 14.811 54.7543C14.3851 55.0382 13.8773 55.1802 13.2876 55.1802ZM21.5529 55.1474C21.0942 55.1474 20.7393 55.0218 20.4882 54.7707C20.237 54.5195 20.1114 54.1537 20.1114 53.6732V48.2513C20.1114 47.7817 20.2315 47.4214 20.4718 47.1702C20.723 46.9191 21.0779 46.7935 21.5365 46.7935C21.9952 46.7935 22.3446 46.9191 22.5848 47.1702C22.8251 47.4214 22.9452 47.7817 22.9452 48.2513V49.0212L22.765 48.3496C23.0271 47.8363 23.3984 47.4432 23.8789 47.1702C24.3703 46.8972 24.9272 46.7607 25.5497 46.7607C26.194 46.7607 26.7236 46.8863 27.1386 47.1375C27.5535 47.3777 27.8648 47.7599 28.0722 48.2841C28.2797 48.7973 28.3835 49.4471 28.3835 50.2333V53.6732C28.3835 54.1537 28.2579 54.5195 28.0067 54.7707C27.7556 55.0218 27.3952 55.1474 26.9256 55.1474C26.4561 55.1474 26.0957 55.0218 25.8445 54.7707C25.5934 54.5195 25.4678 54.1537 25.4678 53.6732V50.348C25.4678 49.8566 25.3804 49.5071 25.2057 49.2997C25.0419 49.0922 24.7962 48.9884 24.4686 48.9884C24.0318 48.9884 23.6823 49.1304 23.4202 49.4143C23.1582 49.6873 23.0271 50.0586 23.0271 50.5282V53.6732C23.0271 54.656 22.5357 55.1474 21.5529 55.1474ZM34.1566 55.1802C33.2503 55.1802 32.4585 55.0109 31.7815 54.6724C31.1154 54.3339 30.5966 53.8479 30.2254 53.2145C29.8541 52.5703 29.6684 51.8168 29.6684 50.9541C29.6684 50.2989 29.7722 49.7146 29.9797 49.2014C30.1871 48.6772 30.4874 48.2349 30.8806 47.8746C31.2846 47.5142 31.7597 47.2412 32.3057 47.0556C32.8626 46.859 33.4796 46.7607 34.1566 46.7607C34.4733 46.7607 34.8064 46.7935 35.1558 46.859C35.5053 46.9136 35.8656 47.0228 36.2369 47.1866C36.499 47.2849 36.6792 47.4378 36.7775 47.6452C36.8867 47.8418 36.9304 48.0548 36.9085 48.2841C36.8976 48.5134 36.8321 48.7209 36.712 48.9065C36.6028 49.0922 36.4444 49.2178 36.2369 49.2833C36.0404 49.3488 35.8165 49.3215 35.5653 49.2014C35.3906 49.114 35.205 49.054 35.0084 49.0212C34.8228 48.9775 34.6426 48.9557 34.4679 48.9557C34.173 48.9557 33.9109 48.9994 33.6816 49.0867C33.4632 49.1741 33.2776 49.3051 33.1247 49.4798C32.9718 49.6436 32.8517 49.8511 32.7643 50.1023C32.6879 50.3535 32.6496 50.6374 32.6496 50.9541C32.6496 51.5874 32.808 52.0843 33.1247 52.4447C33.4414 52.805 33.8891 52.9852 34.4679 52.9852C34.6426 52.9852 34.8228 52.9688 35.0084 52.9361C35.1941 52.8924 35.3797 52.8269 35.5653 52.7395C35.8165 52.6194 36.0404 52.5976 36.2369 52.674C36.4335 52.7395 36.5918 52.8651 36.712 53.0507C36.8321 53.2364 36.8976 53.4439 36.9085 53.6732C36.9194 53.8916 36.8703 54.1045 36.7611 54.312C36.6519 54.5086 36.4663 54.656 36.2042 54.7543C35.8438 54.9181 35.4889 55.0273 35.1395 55.0819C34.8009 55.1474 34.4733 55.1802 34.1566 55.1802ZM39.4209 55.1474C38.9622 55.1474 38.6073 55.0218 38.3561 54.7707C38.105 54.5195 37.9794 54.1537 37.9794 53.6732V44.7787C37.9794 44.2982 38.105 43.9324 38.3561 43.6812C38.6073 43.43 38.9622 43.3045 39.4209 43.3045C39.8904 43.3045 40.2508 43.43 40.502 43.6812C40.764 43.9324 40.8951 44.2982 40.8951 44.7787V48.3496H40.633C40.8951 47.8363 41.2664 47.4432 41.7469 47.1702C42.2383 46.8972 42.7952 46.7607 43.4176 46.7607C44.0619 46.7607 44.5916 46.8863 45.0065 47.1375C45.4215 47.3777 45.7327 47.7599 45.9402 48.2841C46.1477 48.7973 46.2514 49.4471 46.2514 50.2333V53.6732C46.2514 54.1537 46.1259 54.5195 45.8747 54.7707C45.6235 55.0218 45.2632 55.1474 44.7936 55.1474C44.324 55.1474 43.9637 55.0218 43.7125 54.7707C43.4613 54.5195 43.3357 54.1537 43.3357 53.6732V50.348C43.3357 49.8566 43.2484 49.5071 43.0737 49.2997C42.9099 49.0922 42.6642 48.9884 42.3365 48.9884C41.8997 48.9884 41.5503 49.1304 41.2882 49.4143C41.0261 49.6873 40.8951 50.0586 40.8951 50.5282V53.6732C40.8951 54.656 40.4037 55.1474 39.4209 55.1474ZM49.3874 55.1474C48.9287 55.1474 48.5738 55.0218 48.3226 54.7707C48.0715 54.5195 47.9459 54.1537 47.9459 53.6732V48.2513C47.9459 47.7817 48.066 47.4214 48.3063 47.1702C48.5574 46.9191 48.9123 46.7935 49.371 46.7935C49.8296 46.7935 50.1791 46.9191 50.4193 47.1702C50.6596 47.4214 50.7797 47.7817 50.7797 48.2513V49.1522L50.5995 48.3496C50.8288 47.8691 51.1674 47.4869 51.6151 47.203C52.0737 46.9081 52.6143 46.7607 53.2367 46.7607C53.8264 46.7607 54.3288 46.9027 54.7437 47.1866C55.1696 47.4705 55.4754 47.9019 55.661 48.4806H55.4317C55.6829 47.9456 56.0596 47.5251 56.5619 47.2194C57.0643 46.9136 57.6212 46.7607 58.2327 46.7607C58.8661 46.7607 59.3848 46.8863 59.7889 47.1375C60.1929 47.3777 60.4932 47.7599 60.6898 48.2841C60.8973 48.7973 61.001 49.4471 61.001 50.2333V53.6732C61.001 54.1537 60.87 54.5195 60.6079 54.7707C60.3567 55.0218 59.9963 55.1474 59.5268 55.1474C59.0681 55.1474 58.7132 55.0218 58.4621 54.7707C58.2109 54.5195 58.0853 54.1537 58.0853 53.6732V50.3152C58.0853 49.8457 58.0143 49.5071 57.8724 49.2997C57.7304 49.0922 57.4956 48.9884 57.168 48.9884C56.764 48.9884 56.4527 49.1304 56.2343 49.4143C56.0268 49.6982 55.9231 50.1023 55.9231 50.6265V53.6732C55.9231 54.1537 55.7975 54.5195 55.5464 54.7707C55.2952 55.0218 54.9348 55.1474 54.4653 55.1474C53.9957 55.1474 53.6353 55.0218 53.3842 54.7707C53.133 54.5195 53.0074 54.1537 53.0074 53.6732V50.3152C53.0074 49.8457 52.9364 49.5071 52.7945 49.2997C52.6525 49.0922 52.4177 48.9884 52.0901 48.9884C51.697 48.9884 51.3912 49.1304 51.1728 49.4143C50.9653 49.6982 50.8616 50.1023 50.8616 50.6265V53.6732C50.8616 54.656 50.3702 55.1474 49.3874 55.1474ZM66.7725 55.1802C65.877 55.1802 65.0962 55.0109 64.4301 54.6724C63.764 54.3339 63.2453 53.8479 62.874 53.2145C62.5027 52.5812 62.3171 51.8331 62.3171 50.9704C62.3171 50.3152 62.4208 49.731 62.6283 49.2178C62.8358 48.6936 63.1361 48.2513 63.5292 47.891C63.9223 47.5197 64.3919 47.2412 64.9379 47.0556C65.4839 46.859 66.0954 46.7607 66.7725 46.7607C67.668 46.7607 68.4487 46.93 69.1149 47.2685C69.781 47.607 70.2943 48.093 70.6546 48.7263C71.0259 49.3488 71.2116 50.0968 71.2116 50.9704C71.2116 51.6147 71.1078 52.199 70.9003 52.7231C70.6928 53.2473 70.3925 53.695 69.9994 54.0663C69.6172 54.4267 69.1476 54.7052 68.5907 54.9017C68.0447 55.0874 67.4386 55.1802 66.7725 55.1802ZM66.7725 53.0344C67.0673 53.0344 67.3294 52.9634 67.5588 52.8214C67.7881 52.6685 67.9628 52.4447 68.0829 52.1498C68.214 51.8441 68.2795 51.4509 68.2795 50.9704C68.2795 50.2388 68.1375 49.7146 67.8536 49.3979C67.5697 49.0703 67.2093 48.9065 66.7725 48.9065C66.4777 48.9065 66.2156 48.9775 65.9862 49.1195C65.7569 49.2614 65.5767 49.4853 65.4457 49.7911C65.3146 50.0859 65.2491 50.479 65.2491 50.9704C65.2491 51.6912 65.3911 52.2153 65.675 52.543C65.9589 52.8706 66.3248 53.0344 66.7725 53.0344ZM73.989 55.1474C73.5304 55.1474 73.1755 55.0218 72.9243 54.7707C72.6732 54.5195 72.5476 54.1537 72.5476 53.6732V48.2513C72.5476 47.7817 72.6677 47.4214 72.9079 47.1702C73.1591 46.9191 73.514 46.7935 73.9727 46.7935C74.4313 46.7935 74.7808 46.9191 75.021 47.1702C75.2612 47.4214 75.3814 47.7817 75.3814 48.2513V49.0212L75.2012 48.3496C75.4633 47.8363 75.8346 47.4432 76.315 47.1702C76.8065 46.8972 77.3634 46.7607 77.9858 46.7607C78.6301 46.7607 79.1598 46.8863 79.5747 47.1375C79.9897 47.3777 80.3009 47.7599 80.5084 48.2841C80.7159 48.7973 80.8196 49.4471 80.8196 50.2333V53.6732C80.8196 54.1537 80.694 54.5195 80.4429 54.7707C80.1917 55.0218 79.8313 55.1474 79.3618 55.1474C78.8922 55.1474 78.5318 55.0218 78.2807 54.7707C78.0295 54.5195 77.9039 54.1537 77.9039 53.6732V50.348C77.9039 49.8566 77.8166 49.5071 77.6418 49.2997C77.478 49.0922 77.2323 48.9884 76.9047 48.9884C76.4679 48.9884 76.1185 49.1304 75.8564 49.4143C75.5943 49.6873 75.4633 50.0586 75.4633 50.5282V53.6732C75.4633 54.656 74.9719 55.1474 73.989 55.1474ZM86.8713 55.1802C85.8884 55.1802 85.0367 55.0109 84.3159 54.6724C83.6061 54.3229 83.0601 53.8315 82.6779 53.1982C82.2957 52.5648 82.1046 51.8168 82.1046 50.9541C82.1046 50.1241 82.2848 49.3979 82.6451 48.7755C83.0164 48.1421 83.5187 47.6507 84.1521 47.3013C84.7964 46.9409 85.5281 46.7607 86.3471 46.7607C86.9477 46.7607 87.4937 46.859 87.9851 47.0556C88.4765 47.2412 88.8969 47.5197 89.2464 47.891C89.5958 48.2513 89.8579 48.6881 90.0326 49.2014C90.2183 49.7146 90.3111 50.2879 90.3111 50.9213C90.3111 51.1397 90.2511 51.3035 90.1309 51.4127C90.0108 51.511 89.8197 51.5601 89.5576 51.5601H84.5452V50.1842H88.1817L87.9196 50.3971C87.9196 49.9931 87.865 49.6655 87.7558 49.4143C87.6466 49.1632 87.4828 48.972 87.2644 48.841C87.0569 48.71 86.7948 48.6444 86.4781 48.6444C86.1396 48.6444 85.8448 48.7263 85.5936 48.8901C85.3533 49.043 85.1677 49.2724 85.0367 49.5781C84.9056 49.8839 84.8401 50.2661 84.8401 50.7247V50.8722C84.8401 51.6475 85.0094 52.2044 85.3479 52.543C85.6973 52.8706 86.2324 53.0344 86.9532 53.0344C87.1934 53.0344 87.4664 53.0071 87.7722 52.9525C88.0889 52.8869 88.3892 52.7996 88.6731 52.6904C88.957 52.5812 89.2027 52.5648 89.4102 52.6412C89.6177 52.7068 89.776 52.8269 89.8852 53.0016C90.0053 53.1654 90.0709 53.3565 90.0818 53.5749C90.0927 53.7824 90.0436 53.9899 89.9344 54.1974C89.8252 54.3939 89.645 54.5468 89.3938 54.656C89.0116 54.8307 88.6021 54.9618 88.1653 55.0491C87.7394 55.1365 87.3081 55.1802 86.8713 55.1802ZM93.7657 58.0959C93.4272 58.0959 93.1542 58.0085 92.9467 57.8338C92.7392 57.6591 92.6082 57.4297 92.5535 57.1458C92.5099 56.8619 92.559 56.5616 92.701 56.2449L93.7985 53.8698V55.0491L90.9974 48.6444C90.8555 48.3168 90.8063 48.0111 90.85 47.7271C90.9046 47.4432 91.052 47.2194 91.2923 47.0556C91.5325 46.8808 91.8601 46.7935 92.2751 46.7935C92.6245 46.7935 92.903 46.8754 93.1105 47.0392C93.3289 47.1921 93.5254 47.4978 93.7002 47.9565L95.3382 52.2153H94.7813L96.5176 47.9401C96.6923 47.4924 96.8889 47.1921 97.1073 47.0392C97.3366 46.8754 97.6424 46.7935 98.0246 46.7935C98.3522 46.7935 98.6143 46.8808 98.8108 47.0556C99.0074 47.2194 99.1275 47.4432 99.1712 47.7271C99.2149 48.0111 99.1657 48.3168 99.0238 48.6444L95.3054 56.9984C95.1089 57.4352 94.8905 57.7246 94.6502 57.8666C94.4209 58.0194 94.1261 58.0959 93.7657 58.0959Z" fill="#0E0E0E"/>
</svg>
