<svg width="91" height="28" viewBox="0 0 91 28" fill="none" xmlns="http://www.w3.org/2000/svg">
<g clip-path="url(#clip0_1901_13497)">
<path d="M7.95146 7.70398H24.8483C24.8483 3.45351 21.2591 0.0531309 16.8968 0H0C0 4.25047 3.5892 7.70398 7.95146 7.70398Z" fill="#161616"/>
<path d="M0 17.374V28.0002H0.0552184C4.804 28.0002 8.6693 24.2279 8.6693 19.6586V17.4271H10.105C14.5224 17.4271 18.1116 13.9736 18.1116 9.72314H8.00667C3.5892 9.72314 0 13.1235 0 17.374Z" fill="#161616"/>
<path d="M43.4017 11.9012V26.1402H40.0333V12.8575H35.6711V26.1402H32.3028V12.8575H30.3701V10.0416H32.3028V8.18199C32.3028 5.20666 34.1802 3.29395 37.162 3.29395H43.1808V6.10988H37.1068C36.2785 6.10988 35.6711 6.85372 35.6711 8.12886V10.0416H41.469C42.5182 10.0416 43.4017 10.8917 43.4017 11.9012Z" fill="#161616"/>
<path d="M44.5059 10.0417H47.819V12.3795H47.8742C48.7025 11.0512 50.2486 9.6167 52.9543 9.6167C56.5987 9.6167 58.8627 12.1139 58.8627 16.0455V26.1936H55.4943V16.2581C55.4943 13.4953 54.0034 12.4326 52.0708 12.4326C49.7516 12.4326 47.8742 14.0266 47.8742 17.055V26.1404H44.5059V10.0417Z" fill="#161616"/>
<path d="M59.6357 18.0644C59.6357 13.0701 62.7832 9.56348 68.0289 9.56348C72.8329 9.56348 75.4834 12.5388 75.87 16.2048H72.3912C72.2255 14.1327 70.7346 12.3794 68.0289 12.3794C64.9919 12.3794 63.1145 14.7703 63.1145 18.1176C63.1145 21.6773 65.268 23.9088 68.0289 23.9088C70.6794 23.9088 72.1151 21.9961 72.3912 20.4022H75.87C75.4282 23.6963 72.7225 26.7248 68.0289 26.7248C63.0041 26.6185 59.6357 23.2181 59.6357 18.0644Z" fill="#161616"/>
<path d="M76.6426 2.70947H80.0109V9.98841C80.0109 10.7322 80.0109 11.2636 79.9557 12.3793H80.0109C80.8392 11.051 82.3853 9.61649 85.091 9.61649C88.7354 9.61649 90.9994 12.1136 90.9994 16.0453V26.1933H87.631V16.2579C87.631 13.4951 86.1401 12.4324 84.2075 12.4324C81.8883 12.4324 80.0109 14.0264 80.0109 17.0548V26.1402H76.6426V2.70947Z" fill="#161616"/>
</g>
<defs>
<clipPath id="clip0_1901_13497">
<rect width="91" height="28" fill="white"/>
</clipPath>
</defs>
</svg>
